<svg width="191" height="67" viewBox="0 0 191 67" fill="none" xmlns="http://www.w3.org/2000/svg">
<path d="M21.0687 66.9728C15.3777 66.7502 10.7216 65.2175 7.08093 62.3707C6.38612 61.8269 4.73046 60.1963 4.17502 59.5086C2.69866 57.6815 1.69493 55.9032 1.02545 53.9302C-1.03461 47.8569 0.0256205 39.8873 4.05807 31.1408C7.51069 23.6527 12.8382 16.226 22.1329 5.94002C23.502 4.42647 27.5793 -2.39362e-08 27.6056 -2.39591e-08C27.6154 -2.39676e-08 27.3932 0.378855 27.1135 0.840229C24.6968 4.82453 22.6289 9.51764 21.5024 13.5806C19.6928 20.1 19.911 25.6947 22.1416 30.0329C23.6804 33.0217 26.3183 35.6104 29.2846 37.0415C34.4777 39.5458 42.0807 39.753 51.3656 37.6477C52.0048 37.5019 83.6816 29.2253 121.759 19.255C159.836 9.28362 190.995 1.1318 191 1.13851C191.011 1.14714 102.536 38.4102 56.6073 57.7419C49.3337 60.8025 47.3887 61.5756 43.9692 62.7573C35.2281 65.7786 27.398 67.2202 21.0687 66.9728Z" fill="black"/>
</svg>
